<svg width="83" height="83" viewBox="0 0 83 83" fill="none" xmlns="http://www.w3.org/2000/svg">
<path d="M0 14C0 6.26801 6.26801 0 14 0H69C76.732 0 83 6.26801 83 14V69C83 76.732 76.732 83 69 83H14C6.26801 83 0 76.732 0 69V14Z" fill="white"/>
<path d="M6.8 43.2L33.574 43.2L21.276 55.498L24.4 58.6L42 41L24.4 23.4L21.298 26.502L33.574 38.8L6.8 38.8L6.8 43.2Z" fill="#7E8959"/>
<path fill-rule="evenodd" clip-rule="evenodd" d="M13.4 69.6L70.6 69.6L70.6 12.4L13.4 12.4L13.4 27.8H9.00001V8L75 8.00001L75 74L9 74L9 54.2H13.4L13.4 69.6Z" fill="#7E8959"/>
</svg>
